<svg xmlns="http://www.w3.org/2000/svg" width="80" height="80" viewBox="0 0 60 60"><path d="M163.33 51.895a64.86 64.86 0 0 0-45.78 18.99 64.84 64.84 0 0 0-18.99 45.783v256.658a64.843 64.843 0 0 0 18.99 45.783 64.856 64.856 0 0 0 45.78 18.99 28.612 28.612 0 0 1 20.184 8.378 28.621 28.621 0 0 1 8.379 20.185v13.672a41.435 41.435 0 0 0 12.123 29.314 41.41 41.41 0 0 0 58.605-.023l63.164-63.162a28.75 28.75 0 0 1 20.201-8.363h190.68a64.836 64.836 0 0 0 64.77-64.771V116.667a64.843 64.843 0 0 0-18.99-45.783 64.854 64.854 0 0 0-45.776-18.99Zm.006 36.214h373.34a28.61 28.61 0 0 1 20.18 8.377 28.621 28.621 0 0 1 8.379 20.186l-.006 256.658a28.612 28.612 0 0 1-8.377 20.184 28.62 28.62 0 0 1-20.182 8.379H345.992a64.29 64.29 0 0 0-45.793 18.986l-63.162 63.16a5.227 5.227 0 0 1-8.93-3.701v-13.672a64.86 64.86 0 0 0-18.99-45.783 64.855 64.855 0 0 0-45.781-18.99 28.61 28.61 0 0 1-20.18-8.377 28.617 28.617 0 0 1-8.379-20.184v-256.66a28.611 28.611 0 0 1 8.377-20.184 28.62 28.62 0 0 1 20.182-8.379z" style="opacity:.99999999;stroke-width:0;stroke-dasharray:none;fill:#2c2c2c;fill-opacity:1" transform="matrix(.1196 0 0 .12802 -11.86 -6.721)"/><path d="M256.67 204.17h93.332a17.498 17.498 0 0 0 15.156-26.25 17.499 17.499 0 0 0-15.156-8.75H256.67a17.498 17.498 0 0 0-15.156 26.25 17.499 17.499 0 0 0 15.156 8.75zM443.33 262.5H256.67a17.498 17.498 0 0 0-15.156 26.25 17.499 17.499 0 0 0 15.156 8.75h186.67-.004a17.498 17.498 0 0 0 15.156-26.25 17.499 17.499 0 0 0-15.156-8.75z" style="fill:#2c2c2c;fill-opacity:1" transform="matrix(.1196 0 0 .12802 -11.86 -6.721)"/></svg>