<svg xmlns="http://www.w3.org/2000/svg" width="80" height="69.107" viewBox="0 0 60 51.83"><path d="M119.553 66.986c-4.131 0-8.25 1.596-11.393 4.754-6.288 6.32-6.28 16.544 0 22.867l23.899 24.09a2.33 2.33 0 0 0 3.3 0c7.978-8.018 15.963-16.028 23.94-24.047 6.288-6.32 6.288-16.57 0-22.888-6.289-6.32-16.518-6.321-22.809 0l-2.74 2.781-2.783-2.803a16.076 16.076 0 0 0-11.414-4.754zm0 4.618c2.918 0 5.853 1.14 8.113 3.412l4.434 4.455a2.33 2.33 0 0 0 3.302 0l4.391-4.434c4.515-4.537 11.69-4.537 16.205 0a11.52 11.52 0 0 1 0 16.315c-7.429 7.466-14.86 14.95-22.289 22.418l-22.248-22.438a11.524 11.524 0 0 1 0-16.316c2.26-2.271 5.175-3.412 8.092-3.412z" style="stroke-width:.12182;fill:#2c2c2c;fill-opacity:1" transform="translate(-103.731 -67.27)"/></svg>