<svg xmlns="http://www.w3.org/2000/svg" width="75.781" height="60" viewBox="0 0 56.835 45"><path d="M118.55 75.652a12.143 12.143 0 0 0-9.066 4.073 12.353 12.353 0 0 0-3.052 9.521 12.3 12.3 0 0 0 4.914 8.588 11.263 11.263 0 0 0-5.49 9.648v11.315c0 .532.208 1.04.582 1.416.372.376.878.588 1.406.588h21.414c.527 0 1.033-.212 1.406-.588s.582-.884.582-1.416v-11.305a11.262 11.262 0 0 0-5.49-9.658 12.3 12.3 0 0 0 4.914-8.588 12.353 12.353 0 0 0-3.053-9.521 12.144 12.144 0 0 0-9.066-4.073zm0 4.04c2.179 0 4.267.872 5.807 2.425a8.312 8.312 0 0 1 2.405 5.856 8.315 8.315 0 0 1-2.408 5.855 8.177 8.177 0 0 1-5.81 2.42 8.181 8.181 0 0 1-5.806-2.43 8.323 8.323 0 0 1 .012-11.703 8.19 8.19 0 0 1 5.8-2.424zm-17.519 2.175a10.508 10.508 0 0 0-7.883 3.557 10.677 10.677 0 0 0-2.601 8.297 10.636 10.636 0 0 0 4.361 7.408 11.244 11.244 0 0 0-4.85 9.238v8.014c0 .531.21 1.042.583 1.418a1.98 1.98 0 0 0 1.406.586h9.281c.711 0 1.368-.382 1.723-1.002a2.015 2.015 0 0 0 0-2.002 1.986 1.986 0 0 0-1.723-1.002h-7.293v-6.012a7.285 7.285 0 0 1 2.092-5.152 7.17 7.17 0 0 1 5.096-2.143h1.062a1.98 1.98 0 0 0 1.406-.586c.373-.375.582-.886.582-1.418v-.012a2.088 2.088 0 0 0-.068-.279 2.002 2.002 0 0 0-.789-1.309 1.98 1.98 0 0 0-1.479-.365 5.773 5.773 0 0 1-.935.069 6.625 6.625 0 0 1-5.072-3.526 6.72 6.72 0 0 1 0-6.209 6.62 6.62 0 0 1 5.062-3.523c.316-.001.632.024.945.076.711.11 1.427-.17 1.875-.736.45-.566.564-1.33.303-2.004a2.014 2.014 0 0 0-1.57-1.266 9.822 9.822 0 0 0-1.514-.117zm35.02.01c-.507 0-1.014.04-1.514.117-.71.11-1.31.592-1.57 1.266a2.041 2.041 0 0 0 .304 2.004 2 2 0 0 0 1.874.736c.312-.051.628-.078.935-.078a6.625 6.625 0 0 1 5.072 3.525 6.72 6.72 0 0 1 0 6.21 6.62 6.62 0 0 1-5.062 3.525 5.725 5.725 0 0 1-.945-.069 1.981 1.981 0 0 0-1.479.366 2.005 2.005 0 0 0-.789 1.314 2.191 2.191 0 0 0 0 .344c0 .531.21 1.04.582 1.416a1.98 1.98 0 0 0 1.406.586h1.014a7.17 7.17 0 0 1 5.072 2.119 7.29 7.29 0 0 1 2.115 5.11v6.01h-7.244c-.71 0-1.367.383-1.722 1.003a2.015 2.015 0 0 0 0 2.002 1.986 1.986 0 0 0 1.722 1.002h9.233a1.98 1.98 0 0 0 1.406-.586c.373-.376.582-.887.582-1.418v-8.014a11.244 11.244 0 0 0-4.85-9.238 10.636 10.636 0 0 0 4.35-7.412 10.677 10.677 0 0 0-2.61-8.291 10.509 10.509 0 0 0-7.882-3.549zm-19.031 18.37h3.062a7.168 7.168 0 0 1 5.078 2.124 7.284 7.284 0 0 1 2.11 5.121v9.301h-17.438v-9.3a7.285 7.285 0 0 1 2.107-5.122 7.17 7.17 0 0 1 5.08-2.125z" style="stroke-width:.109791;fill:#2c2c2c;fill-opacity:1" transform="translate(-90.133 -75.726)"/></svg>