<svg xmlns="http://www.w3.org/2000/svg" width="60" height="65.849" viewBox="0 0 45 49.386"><path d="M103.628 28.27a4.117 4.117 0 1 0-4.117-7.132 4.117 4.117 0 0 0 4.117 7.132zm3.8 2.225a8.236 8.236 0 1 1 .019-11.562l14.712-8.494a8.236 8.236 0 1 1 2.06 3.566L109.505 22.5a8.23 8.23 0 0 1-.01 4.435l14.622 8.442a8.235 8.235 0 1 1-2.06 3.566zM132.155 11.8a4.117 4.117 0 1 0-4.117-7.131 4.117 4.117 0 0 0 4.117 7.131zm-4.219 32.914a4.118 4.118 0 1 0 4.118-7.132 4.118 4.118 0 0 0-4.118 7.132z" style="fill:#2c2c2c;fill-opacity:1;stroke-width:.0882324" transform="translate(-93.333 .002)"/></svg>