<svg xmlns="http://www.w3.org/2000/svg" width="700pt" height="700pt" viewBox="0 0 700 700"><path d="M236.216 45.642h37.024v621.997h-37.024z" style="fill:#58727f;fill-opacity:1;stroke-width:1.32227"/><path d="M243.62 412.346V48.325l409.892 172.503Zm22.216-337.378v309.597l348.618-162.904Z" style="fill:#58727f;fill-opacity:1;stroke-width:1.32227"/><path d="M320.815 145.472h54.942v54.936h-54.942zm-54.94 164.821H320.8v54.926h-54.926zm109.881-109.881h54.925v54.926h-54.925zm109.854 0h54.926v54.926H485.61zm-54.927-62.847v7.913h18.832zm0 176.603 8.331-3.885h-8.331z" style="fill:#58727f;fill-opacity:1;stroke-width:1.32227"/><path d="M485.61 255.34h-54.931v54.947h8.331l46.6-21.782zm-54.927 54.953h-54.926v29.56l54.926-25.676zm54.927-109.881v-39.74l-36.1-15.196h-18.83v54.936zm94.437 0-39.514-16.626v16.626zm-149.364-54.94v-7.913l-54.926-23.119v31.033zM320.815 255.34h54.942v54.941h-54.942zm274.663-48.435v30.257l34.07-15.908zm-54.941 48.435v7.494l16.038-7.494zm-274.662-54.928H320.8v54.926h-54.926zm0-109.87H320.8v54.937h-54.926z" style="fill:#58727f;fill-opacity:1;stroke-width:1.32227"/></svg>