<?xml version="1.0" encoding="UTF-8" standalone="no"?>
<svg
   width="700pt"
   height="700pt"
   viewBox="0 0 700 700"
   version="1.1"
   id="svg56"
   sodipodi:docname="start-marker.svg"
   inkscape:version="1.2.2 (b0a8486541, 2022-12-01)"
   xmlns:inkscape="http://www.inkscape.org/namespaces/inkscape"
   xmlns:sodipodi="http://sodipodi.sourceforge.net/DTD/sodipodi-0.dtd"
   xmlns="http://www.w3.org/2000/svg"
   xmlns:svg="http://www.w3.org/2000/svg">
  <defs
     id="defs60" />
  <sodipodi:namedview
     id="namedview58"
     pagecolor="#505050"
     bordercolor="#eeeeee"
     borderopacity="1"
     inkscape:showpageshadow="0"
     inkscape:pageopacity="0"
     inkscape:pagecheckerboard="0"
     inkscape:deskcolor="#505050"
     inkscape:document-units="pt"
     showgrid="false"
     inkscape:zoom="0.90535714"
     inkscape:cx="467.7712"
     inkscape:cy="467.7712"
     inkscape:window-width="1920"
     inkscape:window-height="1014"
     inkscape:window-x="0"
     inkscape:window-y="32"
     inkscape:window-maximized="1"
     inkscape:current-layer="svg56" />
  <path
     d="m497.22 250.14 63.507-100.26a17.494 17.494 0 0 0-3.312-22.578 17.501 17.501 0 0 0-11.387-4.286h-324.99v-4.128a17.498 17.498 0 0 0-26.25-15.156 17.499 17.499 0 0 0-8.75 15.156v420h-17.922a17.497 17.497 0 0 0-15.152 8.75 17.486 17.486 0 0 0 0 17.5 17.497 17.497 0 0 0 15.152 8.75h70.805a17.498 17.498 0 0 0 15.156-8.75 17.486 17.486 0 0 0 0-17.5 17.499 17.499 0 0 0-15.156-8.75h-17.883v-161.73h324.99a17.503 17.503 0 0 0 14.79-26.864zm-276.18 92.016v-184.14h293.11l-52.5 82.688a17.54 17.54 0 0 0-2.72 9.37c0 3.321.946 6.571 2.72 9.372l52.5 82.703z"
     style="fill:#58727f;fill-opacity:1"
     id="path52" />
  <path
     d="M295.464 333.57V211.519h388.864l-3.702 5.799c-37.572 58.843-66.997 105.994-67.998 108.961-1.82 5.392-1.526 11.033.847 16.258 1.522 3.352 51.942 83.673 69.426 110.6l1.613 2.484h-389.05Z"
     style="fill:#a3d168;fill-opacity:1;stroke:#000;stroke-width:36.8179;stroke-opacity:0.2"
     transform="scale(.75)"
     id="path54" />
</svg>
