<svg xmlns="http://www.w3.org/2000/svg" xml:space="preserve" width="243.91" height="66.02" viewBox="0 0 64.535 17.468"><g fill="#a3d168"><path d="m13.081 3.85-1.712-.647c-.394.485-2.159.647-2.159.647zm-11.73 0h2.043a56.426 56.426 0 0 1 1.589 0h1.291c-.55-.424-1.448-.7-2.461-.7-1.014 0-1.911.276-2.462.7zm-.1-1.167c.865-.701 2.13-1.303 3.503-1.601a8.267 8.267 0 0 1 1.164-.17C5.438.772 4.833.76 4.163.906c-1.21.262-2.313.967-2.912 1.777zm1.007.13c1.359-.458 3.194-.627 5.058-.388.552.07 1.072.172 1.551.3-.565-.372-1.334-.646-2.245-.763-1.642-.21-3.308.149-4.363.851zm8.777.06C10.57 1.979 9.59 1.111 8.437.663 7.797.412 7.198.33 6.703.392c.359.083.735.2 1.123.35 1.31.51 2.464 1.302 3.21 2.13zm-3.4 8.97c-.11 1.33.416 1.65.78 2.236.454.733 1.334 1.635 1.488 2.558.07.42.095.676.1.831H.01c.008-.565-.298-2.479 1.96-4.86.76-.8 2.862-2.54 1.512-4.393a5.292 5.292 0 0 1-.794-1.607c-.375.184-1.626-1.491-2.022-1.915C.28 4.28.313 3.994.51 3.85c.852-.38-.143-.548-.257-.578l.073-.567s.825-.823 1.945-1.477C3.536.488 4.951.035 6.343.002c2.992-.072 4.855 2.14 5.053 3.111l1.978.744v.138s-1.675.315-2.803.595c.095.174.246.397.187.506-.165.304-.24.462.05.875.19.268.737 1.075.859 1.297.17.31-.81.32-.724.556.04.108.171.38.214.484.05.127-.254.208-.255.297 0 .034.188.052.158.274-.018.136-.293.029-.309.547-.008.281.328.674-.234 1.03-.334.211-1.124-.038-1.795.056 0 0-.062.004-.13.018L7.313 8.045l.415-2.744c-.144-.016-.3-.04-.469-.075a2.266 2.266 0 0 0-.173-.029l-.355 2.35-2.176-1.515c-.214.132-.418.26-.611.366l2.79 1.944 1.28 2.49c-.1.102-.18.227-.232.368a1.938 1.938 0 0 0-.149.643zM35.265 4.125c-.431 0-.716.245-.716.716v5.884c0 .47.285.715.716.715s.716-.245.716-.715V4.84c0-.47-.285-.716-.716-.716zM15.457 6.057c-1.755 0-2.687 1.147-2.687 2.795 0 1.5.834 2.588 2.599 2.588 1.47 0 2.176-.862 2.176-1.49 0-.284-.235-.55-.598-.55-.755 0-.539.922-1.539.922-.785 0-1.206-.578-1.206-1.47 0-1.295.657-1.677 1.216-1.677 1.03 0 .784.843 1.46.843.364 0 .667-.206.667-.618 0-.667-.892-1.343-2.088-1.343zm3.099 0a.684.684 0 0 0-.697.686c0 .167.059.324.177.667l1.49 4.246c-.107.442-.313.452-.5.452h-.147c-.382 0-.657.195-.657.578 0 .343.265.657.903.657.902 0 1.293-.51 1.637-1.49l1.657-4.698c.069-.186.108-.333.108-.45a.699.699 0 0 0-.735-.648c-.393 0-.589.275-.687.637l-.873 3.246h-.02l-.921-3.344c-.088-.323-.353-.539-.735-.539zm7.07 0c-1.756 0-2.687 1.147-2.687 2.795 0 1.5.834 2.588 2.599 2.588 1.47 0 2.176-.862 2.176-1.49 0-.284-.235-.55-.598-.55-.755 0-.539.922-1.54.922-.784 0-1.205-.578-1.205-1.47 0-1.295.657-1.677 1.216-1.677 1.03 0 .784.843 1.46.843.363 0 .667-.206.667-.618 0-.667-.892-1.343-2.088-1.343zm3.5 0c-.44 0-.647.235-.647.677v5.893c0 .47.285.716.716.716.432 0 .716-.245.716-.716v-1.912h.02c.264.46.754.725 1.411.725 1.51 0 2.207-1.284 2.207-2.657 0-1.853-1.049-2.726-2.245-2.726-.696 0-1.275.294-1.51.902h-.02v-.225c0-.442-.226-.677-.647-.677zm10.503 0c-1.47 0-2.275.725-2.275 1.294 0 .294.245.55.608.55.569 0 .598-.785 1.657-.785.48 0 .903.177.903.589 0 .411-.275.49-.618.529l-.873.098c-1.099.127-2 .46-2 1.647 0 .903.803 1.461 1.617 1.461.755 0 1.403-.215 1.962-.833.02.441.226.833.843.833.344 0 .647-.225.647-.548 0-.226-.147-.363-.147-.962V7.528c0-1.03-.951-1.47-2.324-1.47zm4.207 0c-.45 0-.647.284-.647.716v3.952c0 .382.156.715.715.715s.717-.333.717-.715V8.36c0-.715.588-1.127 1.088-1.127.618 0 .902.411.902.99v2.5c0 .383.157.716.716.716s.716-.333.716-.715V7.94c0-1.452-.941-1.883-1.804-1.883-.814 0-1.334.372-1.736.902h-.02v-.186c0-.432-.196-.716-.647-.716zm5.992 0c-.451 0-.648.284-.648.716v3.952c0 .382.157.715.716.715s.716-.333.716-.715V8.36c0-.715.588-1.127 1.088-1.127.618 0 .903.411.903.99v2.5c0 .383.156.716.715.716s.717-.333.717-.715V7.94c0-1.452-.942-1.883-1.805-1.883-.814 0-1.334.372-1.736.902h-.02v-.186c0-.432-.195-.716-.646-.716zm7.835 0c-1.696 0-2.707 1.118-2.707 2.785 0 1.245.755 2.598 2.756 2.598.863 0 2.246-.402 2.246-1.265a.591.591 0 0 0-.589-.558c-.579 0-.579.706-1.657.706-.834 0-1.324-.55-1.324-1.305h3.236c.48 0 .628-.127.628-.617 0-1.177-.941-2.344-2.589-2.344zm4.236 0c-.363 0-.647.235-.647.667v4c0 .383.157.716.716.716s.716-.333.716-.715V9.058c0-1.187.313-1.59.892-1.59h.255c.353 0 .706-.185.706-.715 0-.402-.333-.696-.784-.696-.697 0-1.02.618-1.187 1.216h-.02v-.55c0-.43-.284-.666-.647-.666zm-4.206 1c.637 0 1.127.48 1.206 1.138h-2.51c.156-.697.588-1.138 1.304-1.138zm-26.713.118c.765.02 1.138.716 1.138 1.559 0 .667-.226 1.589-1.138 1.589-.872.01-1.147-.853-1.147-1.589 0-.814.314-1.56 1.147-1.56zM40.522 8.9v.559c0 .53-.48 1.04-1.265 1.04-.49 0-.794-.266-.794-.59 0-.43.324-.617.922-.705l.52-.079c.166-.03.46-.078.617-.225z"/></g></svg>