<?xml version="1.0" standalone="no"?>
<!DOCTYPE svg PUBLIC "-//W3C//DTD SVG 20010904//EN"
 "http://www.w3.org/TR/2001/REC-SVG-20010904/DTD/svg10.dtd">
<svg version="1.0" xmlns="http://www.w3.org/2000/svg"
 width="1056.000000pt" height="1056.000000pt" viewBox="0 0 1056.000000 1056.000000"
 preserveAspectRatio="xMidYMid meet">
<metadata>
</metadata>
<g transform="translate(0.000000,1056.000000) scale(0.100000,-0.100000)"
fill="#000000" stroke="none">
<path d="M4918 10555 c-2 -2 -41 -6 -88 -10 -47 -3 -96 -8 -110 -10 -14 -2
-52 -6 -84 -10 -33 -3 -75 -8 -94 -11 -19 -3 -46 -7 -61 -9 -14 -2 -26 -4 -26
-5 0 -2 -18 -6 -140 -25 -11 -2 -20 -4 -20 -5 0 -1 -11 -3 -25 -5 -36 -5 -199
-43 -236 -55 -17 -6 -41 -13 -54 -15 -12 -2 -48 -12 -79 -21 -31 -10 -60 -18
-66 -20 -5 -1 -55 -17 -110 -35 -55 -18 -102 -33 -105 -34 -9 -3 -44 -16 -65
-25 -17 -7 -53 -20 -75 -25 -3 -1 -17 -7 -32 -13 -16 -6 -76 -31 -135 -56 -60
-24 -175 -76 -258 -116 -82 -40 -156 -74 -164 -76 -8 -1 -17 -6 -20 -11 -3 -5
-34 -23 -69 -41 -78 -40 -67 -34 -256 -147 -87 -52 -162 -95 -166 -95 -5 0
-10 -4 -12 -9 -3 -8 -136 -101 -144 -101 -2 0 -12 -6 -21 -14 -10 -8 -83 -63
-163 -122 -80 -59 -147 -110 -150 -113 -3 -3 -41 -35 -85 -71 -44 -35 -91 -74
-105 -87 -14 -12 -36 -32 -50 -43 -60 -51 -175 -157 -194 -178 -21 -23 -22
-26 -31 -107 -3 -27 -7 -61 -9 -75 -3 -14 -7 -52 -11 -85 -3 -33 -8 -68 -11
-77 -3 -10 -1 -18 5 -18 17 0 18 0 68 -15 27 -8 60 -16 74 -19 40 -7 130 -47
169 -76 87 -64 43 -135 -140 -229 -25 -13 -59 -42 -75 -65 -26 -36 -30 -49
-29 -111 0 -58 6 -82 33 -137 29 -62 112 -176 172 -238 22 -23 105 -119 154
-179 11 -14 31 -37 45 -52 14 -16 45 -53 70 -84 25 -31 60 -72 77 -91 18 -19
33 -38 33 -43 0 -5 4 -11 8 -13 5 -1 42 -41 82 -88 241 -275 447 -472 570
-543 49 -28 89 -39 133 -38 15 1 28 -3 28 -9 2 -13 4 -22 12 -40 3 -8 12 -35
20 -60 33 -100 87 -235 115 -285 9 -16 16 -32 16 -35 -1 -5 29 -72 45 -100 4
-8 14 -26 21 -39 52 -101 130 -225 271 -437 93 -141 161 -273 183 -359 2 -5 6
-17 10 -26 4 -8 8 -29 9 -45 1 -16 5 -31 9 -34 6 -5 13 -44 24 -130 5 -45 5
-234 -1 -280 -10 -84 -39 -206 -69 -288 -8 -23 -16 -44 -16 -47 -6 -45 -170
-365 -191 -373 -5 -2 -9 -12 -9 -22 0 -10 -4 -20 -8 -22 -5 -1 -23 -25 -42
-53 -18 -27 -43 -62 -54 -76 -12 -15 -30 -39 -41 -55 -11 -15 -33 -44 -50 -64
-16 -20 -41 -51 -55 -69 -14 -17 -36 -44 -50 -60 -14 -15 -63 -69 -110 -121
-47 -52 -166 -176 -265 -276 -216 -219 -304 -310 -370 -388 -27 -32 -57 -66
-66 -75 -8 -9 -42 -50 -75 -91 -32 -41 -63 -80 -69 -87 -48 -58 -193 -260
-235 -327 -290 -461 -456 -860 -535 -1286 -3 -14 -7 -36 -10 -50 -5 -25 -11
-67 -22 -150 -3 -25 -7 -61 -10 -80 -2 -19 -6 -167 -7 -327 l-3 -293 3024 0
3024 0 -6 78 c-7 96 -11 137 -25 232 -7 41 -14 91 -16 110 -18 121 -60 283
-98 372 -9 21 -17 40 -17 43 -3 19 -173 330 -190 345 -3 3 -16 23 -29 45 -13
22 -68 102 -122 177 -54 76 -98 140 -98 144 0 4 -6 12 -13 18 -7 6 -45 54 -83
106 -38 52 -73 100 -77 105 -22 27 -169 242 -175 255 -3 8 -8 17 -11 20 -9 8
-71 100 -71 105 0 3 -7 13 -16 23 -8 9 -40 51 -70 92 -31 41 -62 83 -70 93 -8
9 -14 20 -14 23 0 5 -40 64 -50 74 -28 28 -161 340 -145 340 2 0 -1 15 -6 33
-10 32 -12 45 -28 147 -18 111 -9 438 15 565 3 17 6 37 6 45 0 8 5 21 11 27 5
7 7 13 4 13 -3 0 2 24 13 54 10 30 16 57 13 60 -4 3 -1 6 5 6 7 0 12 5 12 10
0 6 7 27 16 48 10 20 18 42 19 49 4 15 60 97 89 128 l24 26 -41 82 c-23 45
-44 84 -47 87 -3 3 -41 77 -86 165 -154 307 -229 450 -239 457 -5 4 -7 8 -3 8
3 0 -12 35 -34 78 -168 324 -212 409 -221 420 -5 6 -6 12 -2 12 5 0 2 8 -6 18
-8 9 -32 52 -53 94 -40 81 -57 98 -176 178 -36 24 -66 47 -68 52 -2 4 -8 8
-14 8 -9 0 -28 14 -85 60 -7 6 -15 10 -18 10 -3 0 -29 17 -58 38 -29 21 -97
69 -152 107 -55 38 -102 71 -105 74 -5 6 -46 34 -82 56 -9 5 -49 33 -90 62
-91 65 -75 54 -248 173 -80 55 -152 106 -160 113 -8 7 -32 23 -53 36 -21 12
-43 28 -50 34 -7 7 -20 17 -29 22 -9 6 -53 36 -98 68 -45 31 -84 57 -87 57 -2
0 -11 6 -18 13 -33 29 -45 37 -55 37 -5 0 -10 4 -10 8 0 5 -15 17 -34 27 -31
17 -40 45 -14 45 5 0 84 45 175 101 180 109 178 108 232 57 11 -10 22 -18 25
-18 8 0 211 -144 214 -152 2 -5 8 -8 12 -8 11 0 214 -142 218 -152 2 -5 9 -8
16 -8 7 0 21 -8 32 -18 10 -10 46 -36 79 -58 33 -23 85 -58 116 -80 31 -21 85
-59 120 -83 35 -25 66 -48 67 -53 2 -4 8 -8 13 -8 5 0 33 -17 62 -37 28 -20
88 -62 132 -92 44 -30 82 -58 85 -61 14 -16 60 -39 61 -30 2 13 6 29 9 33 1 1
3 16 4 32 3 32 14 103 21 145 11 58 16 96 20 134 2 23 8 61 13 86 6 25 13 70
16 101 4 31 9 67 11 80 3 13 8 44 11 68 3 23 9 64 14 89 4 26 6 50 4 54 -2 3
0 9 6 13 6 4 8 10 5 15 -3 4 -1 31 5 59 5 27 12 72 16 98 3 26 8 55 9 65 2 9
6 38 10 65 8 55 13 88 20 123 9 49 17 105 17 122 -1 26 8 28 83 13 143 -27
176 -32 239 -40 27 -3 53 -8 58 -11 10 -6 6 -61 -12 -164 -14 -81 -18 -110
-24 -160 -3 -25 -8 -56 -11 -70 -2 -13 -7 -42 -10 -65 -4 -22 -8 -52 -10 -66
-3 -14 -7 -41 -9 -60 -3 -19 -10 -65 -16 -104 -6 -38 -13 -81 -15 -95 -2 -14
-7 -45 -10 -70 -3 -25 -8 -52 -10 -60 -2 -8 -6 -37 -10 -65 -3 -27 -12 -90
-20 -140 -7 -49 -16 -108 -20 -130 -3 -22 -10 -67 -15 -100 -5 -33 -12 -80
-16 -105 -3 -25 -8 -54 -10 -65 -1 -11 -6 -40 -9 -65 -3 -25 -8 -50 -10 -56
-3 -12 18 -56 182 -374 55 -107 142 -276 193 -375 51 -99 123 -238 160 -310
37 -71 98 -191 136 -265 38 -74 73 -138 77 -141 5 -3 7 -9 5 -12 -6 -11 32
-48 42 -42 42 26 432 26 685 -1 58 -6 262 -6 319 0 110 11 262 121 309 224 30
65 28 175 -5 307 -23 91 -29 177 -15 235 23 96 46 130 120 177 54 34 57 39 55
95 -2 49 -17 71 -76 110 l-23 15 26 32 c15 17 31 31 37 31 13 0 65 44 89 74
17 22 16 26 -56 187 -59 133 -71 168 -62 184 12 22 48 54 62 55 6 0 22 6 36
14 14 7 59 23 100 36 155 47 249 104 249 153 0 22 -43 100 -112 204 -26 39
-48 76 -48 81 0 6 -4 12 -8 14 -4 2 -57 77 -118 168 -188 280 -219 324 -231
338 -20 21 -97 153 -111 192 -18 45 -23 152 -11 193 6 18 27 66 47 107 37 76
44 128 22 155 -7 8 -9 15 -5 15 4 0 -17 43 -45 96 -28 53 -50 97 -48 99 2 2
15 6 28 9 14 3 50 12 80 20 30 8 69 17 85 20 17 2 30 5 30 6 0 1 8 3 19 5 10
2 39 9 65 15 47 11 77 17 121 26 14 3 43 10 65 16 22 5 52 12 67 13 15 2 46 9
70 16 24 6 57 13 73 16 17 2 48 9 70 15 22 5 47 11 55 13 8 1 35 6 60 11 25 4
47 8 50 9 28 7 90 16 92 14 2 -1 12 2 23 8 11 6 42 14 69 17 27 4 52 9 56 11
3 2 26 6 50 10 25 3 61 10 80 15 38 10 67 16 145 30 28 5 73 13 100 19 64 14
96 19 118 20 13 1 17 10 17 45 l0 44 -72 28 c-40 15 -107 40 -148 56 -41 17
-83 31 -92 33 -9 2 -25 8 -35 13 -10 5 -47 20 -83 32 -35 13 -80 30 -100 38
-19 9 -40 17 -47 18 -11 2 -230 84 -385 145 -42 16 -86 32 -96 34 -10 2 -38
12 -63 23 -24 11 -51 22 -60 25 -9 3 -23 31 -33 69 -10 34 -26 81 -36 103 -10
22 -21 50 -24 63 -4 12 -12 22 -17 22 -5 0 -9 8 -9 18 0 9 -9 28 -20 42 -11
14 -20 29 -20 34 0 23 -195 293 -285 396 -34 39 -266 271 -305 304 -99 87
-238 191 -370 278 -100 66 -143 92 -235 142 -11 6 -28 17 -37 25 -10 8 -18 11
-18 7 0 -4 -13 2 -29 13 -15 11 -31 18 -35 14 -3 -3 -6 -1 -6 5 0 7 -3 11 -7
10 -5 -1 -44 16 -88 36 -44 21 -96 44 -115 51 -19 8 -60 23 -90 35 -81 31
-222 77 -328 106 -91 25 -109 29 -167 40 -16 3 -49 9 -71 14 -23 5 -56 12 -75
14 -19 3 -50 7 -69 10 -83 12 -137 19 -170 23 -46 5 -567 12 -572 8z m761
-230 c79 -8 124 -15 176 -25 28 -5 61 -12 75 -14 14 -3 25 -5 25 -6 0 -1 9 -3
20 -5 19 -4 97 -23 123 -31 7 -2 13 -3 15 -4 32 0 435 -161 477 -190 14 -10
42 -23 62 -29 20 -7 42 -19 48 -27 7 -7 16 -14 21 -14 5 0 57 -30 116 -66 143
-86 144 -87 162 -101 9 -7 48 -35 86 -62 194 -140 479 -408 567 -535 12 -17
30 -38 40 -47 10 -9 18 -21 18 -27 0 -6 4 -12 9 -14 11 -4 128 -177 147 -218
4 -8 16 -28 27 -45 26 -38 32 -44 -125 110 -148 145 -232 219 -352 314 -108
84 -226 172 -278 206 -8 6 -42 28 -74 50 -33 22 -66 43 -74 48 -8 4 -42 25
-75 47 -65 42 -197 119 -310 180 -80 43 -218 113 -225 115 -7 2 -80 35 -160
73 -128 60 -385 160 -510 197 -3 1 -12 4 -20 8 -21 8 -139 44 -175 53 -41 10
-45 11 -47 14 -2 1 -10 3 -19 5 -9 1 -25 5 -35 8 -11 3 -39 12 -64 19 l-45 13
65 5 c72 6 239 3 309 -5z m-1132 -259 c24 0 43 -4 43 -7 0 -3 12 -7 28 -7 26
-2 67 -9 67 -12 0 -1 11 -3 25 -6 76 -12 92 -16 87 -20 -5 -5 -50 -12 -122
-19 -22 -2 -67 -7 -100 -11 -33 -4 -71 -8 -85 -9 -14 -2 -25 -4 -25 -5 0 -1
-13 -3 -30 -5 -16 -2 -58 -8 -92 -15 -35 -6 -73 -13 -85 -15 -13 -2 -34 -6
-48 -9 -43 -7 -291 -67 -367 -87 -40 -11 -81 -22 -92 -24 -11 -2 -28 -8 -38
-13 -10 -6 -22 -10 -28 -11 -13 -1 -116 -30 -135 -38 -8 -3 -19 -7 -25 -9 -5
-1 -55 -19 -110 -39 -55 -20 -104 -38 -110 -39 -5 -2 -23 -8 -38 -14 -16 -7
-30 -12 -31 -12 -2 0 -21 -8 -42 -17 -22 -9 -41 -17 -44 -18 -74 -22 -602
-281 -620 -305 -3 -4 -20 -13 -37 -21 -18 -8 -33 -17 -33 -21 0 -5 -5 -8 -10
-8 -12 0 -86 -46 -115 -71 -11 -10 -24 -19 -30 -20 -12 -2 -65 -38 -142 -96
-31 -24 -59 -43 -62 -43 -4 0 -17 -10 -31 -22 -76 -68 -78 -61 -8 24 161 193
406 406 628 546 25 16 59 37 75 48 35 22 90 53 160 89 28 14 57 30 65 35 20
13 162 77 225 102 27 11 56 24 62 30 7 6 13 8 13 5 0 -4 30 5 68 20 37 14 87
31 112 38 96 28 236 67 255 71 39 8 70 14 95 18 14 3 50 9 80 15 88 16 126 21
223 27 51 3 93 7 94 8 3 2 86 0 330 -8z m493 -669 c14 -3 63 -8 110 -13 85 -8
97 -10 115 -14 6 -1 13 -2 17 -2 10 2 224 -33 263 -43 11 -2 52 -12 90 -21 92
-20 89 -20 170 -42 117 -33 254 -78 305 -99 8 -3 17 -7 20 -8 3 0 27 -11 54
-23 27 -12 50 -22 52 -22 17 0 285 -143 325 -173 l24 -18 -25 6 c-14 3 -33 8
-42 10 -23 6 -58 14 -83 19 -11 2 -51 11 -90 20 -82 20 -112 27 -142 32 -24 4
-46 8 -128 25 -27 5 -63 12 -80 14 -16 3 -43 7 -60 9 -16 3 -41 7 -55 10 -14
2 -45 7 -70 10 -25 3 -55 8 -67 10 -12 3 -48 7 -80 11 -33 3 -70 7 -84 10 -23
4 -128 14 -199 21 -252 21 -308 24 -533 29 -120 3 -222 7 -227 10 -5 3 -11 2
-13 -2 -4 -7 -62 -9 -77 -3 -3 1 -9 1 -15 0 -5 -1 -62 -4 -125 -5 -121 -4
-284 -13 -360 -20 -25 -2 -76 -7 -115 -10 -38 -3 -79 -7 -90 -9 -11 -2 -49 -7
-85 -11 -36 -3 -76 -8 -90 -10 -14 -2 -47 -6 -75 -10 -27 -3 -61 -8 -75 -10
-56 -11 -76 -15 -114 -21 -22 -3 -43 -7 -46 -9 -4 -2 -26 -6 -51 -9 -24 -3
-53 -8 -64 -11 -40 -9 -240 -55 -255 -58 -8 -2 -35 -9 -60 -16 -25 -7 -52 -15
-60 -16 -23 -5 -171 -51 -205 -64 l-30 -11 25 19 c14 11 36 26 50 33 14 7 27
15 30 18 5 5 12 9 100 56 30 16 58 33 62 39 4 5 8 7 8 3 0 -3 30 8 68 26 37
18 99 45 137 61 39 15 84 33 100 40 37 16 109 39 113 36 1 -1 16 6 32 14 17 9
30 13 30 11 0 -3 15 1 34 9 18 8 44 16 57 19 13 3 69 17 124 31 55 14 109 28
120 30 49 11 124 26 148 30 15 3 55 10 90 16 34 6 76 13 92 15 135 17 200 24
273 29 30 2 56 5 58 8 6 6 640 0 674 -6z m-1230 -752 c41 -4 89 -8 105 -10 58
-6 191 -26 235 -36 25 -5 56 -11 69 -14 195 -36 462 -136 646 -241 82 -47 96
-56 119 -76 11 -10 23 -18 28 -18 4 0 8 -4 8 -8 0 -4 -664 -8 -1475 -8 -811 0
-1475 2 -1475 5 0 8 111 80 180 117 30 16 57 32 58 37 2 4 8 7 14 7 5 0 43 16
84 35 40 19 79 35 86 35 7 0 26 7 42 15 15 8 38 17 50 19 11 3 54 16 94 30 39
14 72 23 72 21 0 -3 11 0 25 5 14 5 36 12 48 14 12 3 33 7 47 10 73 16 129 26
160 30 19 3 35 5 35 6 0 1 17 4 38 5 21 2 52 6 70 9 18 3 75 9 127 12 52 3 96
7 97 8 5 5 344 -3 413 -9z m4386 -50 c38 -14 78 -30 89 -35 30 -13 318 -120
335 -125 8 -2 33 -11 55 -21 22 -10 42 -18 45 -19 5 0 47 -16 95 -35 11 -4 58
-22 105 -39 47 -18 94 -36 105 -41 11 -5 41 -16 68 -26 26 -9 47 -18 47 -19 0
-1 -509 -2 -1130 -2 -622 0 -1128 2 -1125 5 3 4 20 7 38 8 27 1 117 13 217 29
79 13 106 18 115 20 18 4 79 16 100 20 11 2 20 4 20 5 0 1 9 3 20 4 11 2 47 9
80 16 73 17 74 17 78 20 1 1 11 3 22 5 11 2 45 11 75 20 192 57 347 129 422
196 23 21 46 39 49 39 4 0 38 -11 75 -25z"/>
</g>
</svg>
