<svg xmlns="http://www.w3.org/2000/svg" width="64" height="74.65" viewBox="0 0 48 55.99">
  <path fill="#a3d168" d="M48 45.88c0 6.3-6.37 10.11-12.12 10.11H12.12C6.37 55.99 0 52.18 0 45.88c0-21.8 6.06-35.84 13.82-42.06 6.34-5.1 14.02-5.1 20.36 0C41.94 10.04 48 24.09 48 45.88zm-34.33-2.72a10.33 10.33 0 0 1 20.66 0H31a7 7 0 1 0-14 0zm3.48-22.67a3.2 3.2 0 1 1 0 6.4 3.2 3.2 0 0 1 0-6.4zm13.7 0a3.2 3.2 0 1 1 0 6.4 3.2 3.2 0 0 1 0-6.4zm13.82 25.39c0-20.68-5.51-33.82-12.57-39.48-5.13-4.11-11.07-4.12-16.2 0C8.84 12.06 3.33 25.2 3.33 45.88c0 4.39 4.92 6.78 8.8 6.78h23.75c3.87 0 8.8-2.4 8.8-6.78z"/>
</svg>
