<svg xmlns="http://www.w3.org/2000/svg" width="64" height="88" viewBox="0 0 48 66">
  <path fill="#a3d168" d="M46 30a2 2 0 0 0 2-2v-8l-.03-.12a2.02 2.02 0 0 0-.55-1.3l-18-18a1.98 1.98 0 0 0-1.3-.56L28 0H2a2 2 0 0 0-2 2v30l.01.05c.01.15.04.3.1.44 0 .11.03.21.07.32.05.09.11.18.18.26.07.14.16.26.27.37l.03.04 8.79 8a2 2 0 0 0 2.69 0l7.45-6.78 7.45 6.78a2 2 0 0 0 2.7 0l7.45-6.78L44 40.88V62H4V44a2 2 0 0 0-4 0v20a2 2 0 0 0 2 2h44a2 2 0 0 0 2-2V40l-.01-.05c-.01-.15-.04-.3-.09-.44a.93.93 0 0 0-.26-.59 1.98 1.98 0 0 0-.27-.36l-.03-.04-8.8-8a2 2 0 0 0-2.7 0L28.4 37.3l-7.46-6.78a2 2 0 0 0-2.69 0l-7.45 6.77L4 31.11V4h22v16a2 2 0 0 0 2 2h16v6a2 2 0 0 0 2 2zM30 18V6.83L41.17 18Z"/>
</svg>
