<?xml version="1.0" encoding="UTF-8" standalone="no"?>
<svg
   width="11.548084"
   height="11.423992"
   viewBox="0 0 11.548084 11.423992"
   fill="none"
   version="1.1"
   id="svg13"
   sodipodi:docname="noun-geolocation-5194485 1.svg"
   inkscape:version="1.2.2 (732a01da63, 2022-12-09)"
   xmlns:inkscape="http://www.inkscape.org/namespaces/inkscape"
   xmlns:sodipodi="http://sodipodi.sourceforge.net/DTD/sodipodi-0.dtd"
   xmlns="http://www.w3.org/2000/svg"
   xmlns:svg="http://www.w3.org/2000/svg">
  <sodipodi:namedview
     id="namedview15"
     pagecolor="#ffffff"
     bordercolor="#000000"
     borderopacity="0.25"
     inkscape:showpageshadow="2"
     inkscape:pageopacity="0.0"
     inkscape:pagecheckerboard="0"
     inkscape:deskcolor="#d1d1d1"
     showgrid="false"
     inkscape:zoom="27.812867"
     inkscape:cx="6.6156431"
     inkscape:cy="6.5796885"
     inkscape:window-width="1920"
     inkscape:window-height="1009"
     inkscape:window-x="-8"
     inkscape:window-y="-8"
     inkscape:window-maximized="1"
     inkscape:current-layer="svg13" />
  <g
     clip-path="url(#clip0_35_192)"
     id="g6"
     transform="translate(-0.22607434,-0.208008)">
    <path
       d="m 7.68007,5.91999 c 0,0.92784 -0.75216,1.68 -1.68,1.68 -0.92784,0 -1.68,-0.75216 -1.68,-1.68 0,-0.92784 0.75216,-1.68 1.68,-1.68 0.92784,0 1.68,0.75216 1.68,1.68 z"
       fill="#474747"
       id="path2" />
    <path
       fill-rule="evenodd"
       clip-rule="evenodd"
       d="M 5.36335,0.408333 C 5.16591,0.608678 5.17069,0.929685 5.18016,1.57178 L 5.181,1.62869 C 3.37668,1.97098 1.96524,3.42307 1.68348,5.24789 H 1.47461 c -0.549098,0 -0.823586,0 -1.005482,0.14137 C 0.402754,5.44082 0.346596,5.50439 0.30366,5.57658 0.186005,5.77467 0.220035,6.0471 0.288191,6.5919 H 1.68348 c 0.28838,1.86748 1.75949,3.3444 3.624,3.6415 L 5.3281,11.632 h 1.344 L 6.69264,10.2334 C 8.55715,9.93632 10.0282,8.45938 10.3166,6.5919 h 1.3955 C 11.7802,6.04712 11.8142,5.77467 11.6966,5.57658 11.6536,5.50439 11.5976,5.44083 11.5312,5.38926 11.3492,5.24789 11.0747,5.24789 10.5256,5.24789 H 10.3167 C 10.0349,3.42295 8.62343,1.97093 6.81914,1.62869 L 6.84004,0.208008 H 6.52392 c -0.6421,0 -0.96319,0 -1.16062,0.200345 z M 9.02407,5.91993 c 0,1.67016 -1.35384,3.024 -3.024,3.024 -1.67016,0 -3.024,-1.35384 -3.024,-3.024 0,-1.67016 1.35384,-3.024 3.024,-3.024 1.67016,0 3.024,1.35384 3.024,3.024 z"
       fill="#474747"
       id="path4" />
  </g>
  <defs
     id="defs11">
    <clipPath
       id="clip0_35_192">
      <rect
         width="12"
         height="12"
         fill="#ffffff"
         id="rect8"
         x="0"
         y="0" />
    </clipPath>
  </defs>
</svg>
